<svg xmlns="http://www.w3.org/2000/svg" viewBox="0 0 64 64" fill="none">
  <!-- CognitiveMesh: Enterprise AI - Neural network pattern -->
  <defs>
    <linearGradient id="cogmesh-grad" x1="0%" y1="0%" x2="100%" y2="100%">
      <stop offset="0%" style="stop-color:#3498db"/>
      <stop offset="100%" style="stop-color:#2980b9"/>
    </linearGradient>
  </defs>
  <!-- Central brain/mesh circle -->
  <circle cx="32" cy="32" r="20" fill="url(#cogmesh-grad)" opacity="0.9"/>
  <!-- Neural network nodes -->
  <circle cx="32" cy="32" r="4" fill="#ffffff"/>
  <circle cx="22" cy="24" r="3" fill="#ffffff"/>
  <circle cx="42" cy="24" r="3" fill="#ffffff"/>
  <circle cx="22" cy="40" r="3" fill="#ffffff"/>
  <circle cx="42" cy="40" r="3" fill="#ffffff"/>
  <!-- Outer nodes -->
  <circle cx="12" cy="18" r="2" fill="#85c1e9"/>
  <circle cx="52" cy="18" r="2" fill="#85c1e9"/>
  <circle cx="12" cy="46" r="2" fill="#85c1e9"/>
  <circle cx="52" cy="46" r="2" fill="#85c1e9"/>
  <circle cx="32" cy="8" r="2" fill="#85c1e9"/>
  <circle cx="32" cy="56" r="2" fill="#85c1e9"/>
  <!-- Connections -->
  <line x1="32" y1="32" x2="22" y2="24" stroke="#ffffff" stroke-width="1.5" opacity="0.8"/>
  <line x1="32" y1="32" x2="42" y2="24" stroke="#ffffff" stroke-width="1.5" opacity="0.8"/>
  <line x1="32" y1="32" x2="22" y2="40" stroke="#ffffff" stroke-width="1.5" opacity="0.8"/>
  <line x1="32" y1="32" x2="42" y2="40" stroke="#ffffff" stroke-width="1.5" opacity="0.8"/>
  <line x1="22" y1="24" x2="12" y2="18" stroke="#85c1e9" stroke-width="1" opacity="0.6"/>
  <line x1="42" y1="24" x2="52" y2="18" stroke="#85c1e9" stroke-width="1" opacity="0.6"/>
  <line x1="22" y1="40" x2="12" y2="46" stroke="#85c1e9" stroke-width="1" opacity="0.6"/>
  <line x1="42" y1="40" x2="52" y2="46" stroke="#85c1e9" stroke-width="1" opacity="0.6"/>
  <line x1="22" y1="24" x2="32" y2="8" stroke="#85c1e9" stroke-width="1" opacity="0.6"/>
  <line x1="42" y1="24" x2="32" y2="8" stroke="#85c1e9" stroke-width="1" opacity="0.6"/>
  <line x1="22" y1="40" x2="32" y2="56" stroke="#85c1e9" stroke-width="1" opacity="0.6"/>
  <line x1="42" y1="40" x2="32" y2="56" stroke="#85c1e9" stroke-width="1" opacity="0.6"/>
</svg>
