<svg xmlns="http://www.w3.org/2000/svg" viewBox="0 0 64 64" fill="none">
  <!-- Mystira: Interactive Storytelling - Magic book with sparkles -->
  <defs>
    <linearGradient id="mystira-grad" x1="0%" y1="0%" x2="100%" y2="100%">
      <stop offset="0%" style="stop-color:#9b59b6"/>
      <stop offset="100%" style="stop-color:#8e44ad"/>
    </linearGradient>
  </defs>
  <!-- Book base -->
  <path d="M12 14 L32 10 L52 14 L52 50 L32 54 L12 50 Z" fill="url(#mystira-grad)"/>
  <path d="M32 10 L32 54" stroke="#ffffff" stroke-width="2"/>
  <!-- Pages -->
  <path d="M16 18 L28 15 L28 46 L16 49 Z" fill="#e8daef" opacity="0.6"/>
  <path d="M36 15 L48 18 L48 49 L36 46 Z" fill="#e8daef" opacity="0.6"/>
  <!-- Sparkles -->
  <circle cx="22" cy="8" r="2" fill="#f1c40f"/>
  <circle cx="42" cy="6" r="1.5" fill="#f1c40f"/>
  <circle cx="50" cy="12" r="1" fill="#f1c40f"/>
  <path d="M24 4 L25 7 L28 8 L25 9 L24 12 L23 9 L20 8 L23 7 Z" fill="#f1c40f"/>
</svg>
