<svg width="800" height="600" viewBox="0 0 800 600" xmlns="http://www.w3.org/2000/svg">
<!-- Background -->
<rect width="800" height="600" fill="#ffffff"/>

<!-- Header -->
<rect x="0" y="0" width="800" height="60" fill="#f8f9fa"/>
<rect x="20" y="15" width="120" height="30" rx="4" fill="#2563eb"/>
<rect x="600" y="20" width="40" height="20" rx="4" fill="#e2e8f0"/>
<rect x="660" y="20" width="40" height="20" rx="4" fill="#e2e8f0"/>
<rect x="720" y="20" width="40" height="20" rx="4" fill="#e2e8f0"/>

<!-- Sidebar -->
<rect x="0" y="60" width="200" height="540" fill="#f8f9fa"/>
<rect x="20" y="80" width="160" height="20" rx="4" fill="#e2e8f0"/>
<rect x="20" y="110" width="140" height="20" rx="4" fill="#e2e8f0"/>
<rect x="20" y="140" width="150" height="20" rx="4" fill="#e2e8f0"/>
<rect x="20" y="170" width="130" height="20" rx="4" fill="#e2e8f0"/>

<!-- Main Content -->
<rect x="240" y="80" width="520" height="40" rx="4" fill="#1e293b"/>
<rect x="240" y="140" width="480" height="20" rx="4" fill="#64748b"/>
<rect x="240" y="170" width="520" height="1" fill="#e2e8f0"/>

<!-- Content Blocks -->
<rect x="240" y="200" width="520" height="100" rx="4" fill="#f8fafc"/>
<rect x="260" y="220" width="480" height="20" rx="4" fill="#e2e8f0"/>
<rect x="260" y="250" width="440" height="20" rx="4" fill="#e2e8f0"/>

<rect x="240" y="320" width="520" height="100" rx="4" fill="#f8fafc"/>
<rect x="260" y="340" width="480" height="20" rx="4" fill="#e2e8f0"/>
<rect x="260" y="370" width="440" height="20" rx="4" fill="#e2e8f0"/>

<rect x="240" y="440" width="520" height="100" rx="4" fill="#f8fafc"/>
<rect x="260" y="460" width="480" height="20" rx="4" fill="#e2e8f0"/>
<rect x="260" y="490" width="440" height="20" rx="4" fill="#e2e8f0"/>
</svg>