<svg width="800" height="600" viewBox="0 0 800 600" xmlns="http://www.w3.org/2000/svg">
<!-- Background -->
<rect width="800" height="600" fill="#0f172a"/>

<!-- Header -->
<rect x="40" y="40" width="100" height="30" rx="15" fill="#ffffff"/>
<rect x="600" y="45" width="40" height="20" rx="10" fill="#334155"/>
<rect x="660" y="45" width="40" height="20" rx="10" fill="#334155"/>
<rect x="720" y="45" width="40" height="20" rx="10" fill="#334155"/>

<!-- Hero Section -->
<rect x="40" y="120" width="500" height="80" rx="4" fill="#ffffff"/>
<rect x="40" y="220" width="300" height="40" rx="4" fill="#94a3b8"/>

<!-- Interactive Elements -->
<rect x="40" y="300" width="220" height="260" rx="12" fill="#1e293b"/>
<rect x="290" y="300" width="220" height="260" rx="12" fill="#1e293b"/>
<rect x="540" y="300" width="220" height="260" rx="12" fill="#1e293b"/>

<!-- Element Content -->
<rect x="60" y="320" width="180" height="180" rx="8" fill="#334155"/>
<rect x="60" y="520" width="140" height="20" rx="4" fill="#ffffff"/>

<rect x="310" y="320" width="180" height="180" rx="8" fill="#334155"/>
<rect x="310" y="520" width="140" height="20" rx="4" fill="#ffffff"/>

<rect x="560" y="320" width="180" height="180" rx="8" fill="#334155"/>
<rect x="560" y="520" width="140" height="20" rx="4" fill="#ffffff"/>
</svg>