<svg width="800" height="600" viewBox="0 0 800 600" xmlns="http://www.w3.org/2000/svg">
<!-- Background -->
<rect width="800" height="600" fill="#ffffff"/>

<!-- Header -->
<rect x="0" y="0" width="800" height="80" fill="#ffffff"/>
<rect x="40" y="25" width="100" height="30" rx="15" fill="#000000"/>
<rect x="600" y="30" width="40" height="20" rx="10" fill="#f3f4f6"/>
<rect x="660" y="30" width="40" height="20" rx="10" fill="#f3f4f6"/>
<rect x="720" y="30" width="40" height="20" rx="10" fill="#f3f4f6"/>

<!-- Hero Section -->
<rect x="40" y="120" width="400" height="60" rx="4" fill="#111827"/>
<rect x="40" y="200" width="300" height="30" rx="4" fill="#4b5563"/>
<rect x="40" y="250" width="120" height="40" rx="20" fill="#000000"/>

<!-- Featured Section -->
<rect x="40" y="340" width="220" height="220" rx="8" fill="#f8fafc"/>
<rect x="290" y="340" width="220" height="220" rx="8" fill="#f8fafc"/>
<rect x="540" y="340" width="220" height="220" rx="8" fill="#f8fafc"/>

<!-- Content Indicators -->
<rect x="60" y="380" width="180" height="20" rx="4" fill="#e5e7eb"/>
<rect x="60" y="420" width="140" height="20" rx="4" fill="#e5e7eb"/>
<rect x="310" y="380" width="180" height="20" rx="4" fill="#e5e7eb"/>
<rect x="310" y="420" width="140" height="20" rx="4" fill="#e5e7eb"/>
<rect x="560" y="380" width="180" height="20" rx="4" fill="#e5e7eb"/>
<rect x="560" y="420" width="140" height="20" rx="4" fill="#e5e7eb"/>
</svg>